<svg xmlns="http://www.w3.org/2000/svg" version="1.1" xmlns:xlink="http://www.w3.org/1999/xlink" xmlns:svgjs="http://svgjs.dev/svgjs" width="1000" height="999" viewBox="0 0 1000 999"><g transform="matrix(1,0,0,1,-0.215743440233382,-0.21552769679306039)"><svg viewBox="0 0 343 343" data-background-color="#fafafa" preserveAspectRatio="xMidYMid meet" height="999" width="1000" xmlns="http://www.w3.org/2000/svg" xmlns:xlink="http://www.w3.org/1999/xlink"><g id="tight-bounds" transform="matrix(1,0,0,1,0.0740000000000407,0.07400000000001228)"><svg viewBox="0 0 342.85155851775386 342.85155851775386" height="342.85155851775386" width="342.85155851775386"><g><svg></svg></g><g><svg viewBox="0 0 342.85155851775386 342.85155851775386" height="342.85155851775386" width="342.85155851775386"><g><path d="M0 171.426c0-94.676 76.75-171.426 171.426-171.426 94.676 0 171.426 76.75 171.426 171.426 0 94.676-76.75 171.426-171.426 171.426-94.676 0-171.426-76.75-171.426-171.426zM171.426 339.66c92.913 0 168.234-75.321 168.234-168.234 0-92.913-75.321-168.234-168.234-168.234-92.913 0-168.234 75.321-168.234 168.234 0 92.913 75.321 168.234 168.234 168.234z" data-fill-palette-color="tertiary" fill="#130912" stroke="transparent"></path><ellipse rx="164.56874808852186" ry="164.56874808852186" cx="171.42577925887693" cy="171.42577925887693" fill="#130912" stroke="transparent" stroke-width="0" fill-opacity="1" data-fill-palette-color="tertiary"></ellipse></g><g transform="matrix(1,0,0,1,64.84655864529837,125.09767967404912)"><svg viewBox="0 0 213.1584412271571 92.65619916965564" height="92.65619916965564" width="213.1584412271571"><g><svg viewBox="0 0 213.1584412271571 92.65619916965564" height="92.65619916965564" width="213.1584412271571"><g><svg viewBox="0 0 213.1584412271571 92.65619916965564" height="92.65619916965564" width="213.1584412271571"><g transform="matrix(1,0,0,1,0,57.26524826920216)"><svg viewBox="0 0 213.1584412271571 35.390950900453475" height="35.390950900453475" width="213.1584412271571"><g id="textblocktransform"><svg viewBox="0 0 213.1584412271571 35.390950900453475" height="35.390950900453475" width="213.1584412271571" id="textblock"><g><svg viewBox="0 0 213.1584412271571 35.390950900453475" height="35.390950900453475" width="213.1584412271571"><g transform="matrix(1,0,0,1,0,0)"><svg width="213.1584412271571" viewBox="0.800000011920929 -36.70000076293945 288.4700012207031 47.900001525878906" height="35.390950900453475" data-palette-color="#fafafa"><path d="M21.6-9.8L21.6-9.8Q21.6-5 17.95-2.2 14.3 0.6 9.1 0.6L9.1 0.6Q5.6 0.6 3.33-1.18 1.05-2.95 0.8-4.2L0.8-4.2Q1.35-5.85 3.15-7.9 4.95-9.95 6.4-10.4L6.4-10.4Q8.95-8.75 11.15-3.05L11.15-3.05Q14.4-3.15 14.4-6.6L14.4-6.6Q14.4-8.5 12.88-11.28 11.35-14.05 9.55-16.48 7.75-18.9 6.23-21.93 4.7-24.95 4.7-27.3L4.7-27.3Q4.7-31.1 7.78-33.3 10.85-35.5 14.7-35.5 18.55-35.5 20.68-33.85 22.8-32.2 22.8-30.1 22.8-28 21.2-25.8 19.6-23.6 18-22.3L18-22.3 16.4-21Q17-20.2 17.85-18.95 18.7-17.7 20.15-14.7 21.6-11.7 21.6-9.8ZM17.78-26.2Q18.45-26.85 19-27.78 19.55-28.7 19.55-29.73 19.55-30.75 18.35-31.45 17.15-32.15 15.48-32.15 13.8-32.15 12.68-31.38 11.55-30.6 11.55-29.53 11.55-28.45 12.28-27.03 13-25.6 13.7-24.65L13.7-24.65 14.45-23.7Q14.95-23.95 16.03-24.75 17.1-25.55 17.78-26.2ZM35.45-21.55L40.3-21.55Q40.2-20.3 39.45-18.65L39.45-18.65Q37.55-18.85 35.85-18.85L35.85-18.85 34.95-18.85Q32.65-7.7 32.65-4.95L32.65-4.95Q32.65-3.5 33.27-3.5 33.9-3.5 36.6-4.75L36.6-4.75 37.5-3.1Q33.05 0.6 29.25 0.6L29.25 0.6Q27.5 0.6 26.37-0.5 25.25-1.6 25.25-3.43 25.25-5.25 25.67-7.55 26.1-9.85 26.85-13.18 27.6-16.5 27.95-18.55L27.95-18.55Q26.1-18.4 25.2-18.25L25.2-18.25Q25.1-18.85 25.1-19.88 25.1-20.9 25.25-21.55L25.25-21.55 28.4-21.55Q28.8-24.25 28.8-26.65L28.8-26.65 28.75-28.2 28.75-28.35Q32.65-29.7 36.1-29.7L36.1-29.7Q36.3-28.7 36.3-27.2 36.3-25.7 35.45-21.55L35.45-21.55ZM40.9 0.15L40.9 0.15 40.55 0.15Q40.45-0.25 40.45-1.68 40.45-3.1 41.8-9.35 43.15-15.6 43.15-16.5L43.15-16.5Q43.15-18.05 41.75-19.9L41.75-19.9 41.3-20.5 41.35-21.15Q44.05-21.9 50-21.9L50-21.9Q50.6-20.6 50.6-18.25L50.6-18.25Q51.15-19.15 52.9-20.65 54.65-22.15 56.5-22.15L56.5-22.15Q59.2-22.15 59.2-17.45L59.2-17.45Q58.95-17.15 58.52-16.68 58.1-16.2 56.82-15.35 55.55-14.5 54.35-14.3L54.35-14.3Q54.3-14.3 53.5-15.65 52.7-17 52.3-17L52.3-17Q51.05-16.55 50.1-15.5L50.1-15.5Q47.8-5.15 47.8-2.1L47.8-2.1Q47.8-1 47.85-0.55L47.85-0.55Q46.1 0.15 40.9 0.15ZM72.99-20.7L72.99-20.7Q73.09-20.8 73.54-22L73.54-22Q75.89-22 79.84-20.6L79.84-20.6Q78.59-16.45 77.84-11.93 77.09-7.4 77.09-5.48 77.09-3.55 77.49-3.55L77.49-3.55Q77.79-3.55 79.69-4.5L79.69-4.5 80.29-4.8 81.19-3.05Q80.74-2.65 80.02-2.05 79.29-1.45 77.29-0.43 75.29 0.6 73.69 0.6L73.69 0.6Q70.59 0.6 70.09-2.2L70.09-2.2Q66.89 0.6 64.32 0.6 61.74 0.6 59.97-1.4 58.19-3.4 58.19-7.7L58.19-7.7Q58.19-14.4 60.94-18.28 63.69-22.15 67.59-22.15L67.59-22.15Q70.39-22.15 72.99-20.7ZM67.29-3.65L67.29-3.65Q68.49-3.65 69.99-4.6L69.99-4.6Q70.34-11.65 72.34-18.55L72.34-18.55Q70.84-19.2 69.79-19.2L69.79-19.2Q67.99-19.2 66.72-15.68 65.44-12.15 65.44-7.9 65.44-3.65 67.29-3.65ZM92.44-19.05Q92.44-16.95 91.09-11.83 89.74-6.7 89.74-5.13 89.74-3.55 90.19-3.55L90.19-3.55Q90.49-3.55 92.49-4.5L92.49-4.5 93.09-4.8 93.94-3.05Q93.49-2.65 92.74-2.05 91.99-1.45 89.94-0.43 87.89 0.6 86.14 0.6 84.39 0.6 83.39-0.48 82.39-1.55 82.39-3.38 82.39-5.2 83.64-9.88 84.89-14.55 84.89-15.95L84.89-15.95Q84.89-18.05 83.59-19.9L83.59-19.9 83.14-20.5 83.19-21.15Q85.84-21.9 91.79-21.9L91.79-21.9Q92.44-21.15 92.44-19.05ZM86.74-27.38Q85.74-28.35 85.74-30 85.74-31.65 87.12-32.9 88.49-34.15 90.29-34.15 92.09-34.15 93.09-33.15 94.09-32.15 94.09-30.53 94.09-28.9 92.67-27.65 91.24-26.4 89.49-26.4 87.74-26.4 86.74-27.38ZM102.01 5.4Q100.34 6.4 100.34 7.35 100.34 8.3 101.41 8.3 102.49 8.3 103.84 7.28 105.19 6.25 106.09 3.95L106.09 3.95Q103.69 4.4 102.01 5.4ZM115.79-21.85L116.84-21.8Q117.04-21.6 117.04-20.93 117.04-20.25 116.94-19.48 116.84-18.7 116.59-16 116.34-13.3 116.09-11.3L116.09-11.3Q113.54 11.2 102.39 11.2L102.39 11.2Q100.59 11.2 99.11 10.25 97.64 9.3 97.64 7.8L97.64 7.8Q97.64 5.8 100.09 4.15 102.54 2.5 106.69 1.6L106.69 1.6Q106.69 1.55 106.99 0.2 107.29-1.15 107.39-2L107.39-2Q104.39 0.2 101.76 0.2 99.14 0.2 97.46-1.85 95.79-3.9 95.79-8.4L95.79-8.4Q95.79-14.3 98.44-18.23 101.09-22.15 105.44-22.15L105.44-22.15Q107.89-22.15 110.29-20.95L110.29-20.95Q112.84-21.85 115.79-21.85L115.79-21.85ZM107.69-19.2L107.69-19.2Q105.54-19.2 104.29-15.73 103.04-12.25 103.04-8.03 103.04-3.8 104.94-3.8L104.94-3.8Q106.19-3.8 107.89-4.75L107.89-4.75Q109.29-13.15 109.89-18.6L109.89-18.6Q108.49-19.2 107.69-19.2ZM124.69-33L124.69-33Q124.69-34.65 124.39-35.35L124.39-35.35Q128.28-36.7 131.74-36.7L131.74-36.7Q132.19-36.25 132.19-34.4L132.19-34.4Q132.19-31.1 129.39-19.2L129.39-19.2Q133.44-22.15 136.49-22.15L136.49-22.15Q138.39-22.15 139.36-20.95 140.34-19.75 140.34-17.78 140.34-15.8 139.19-11.33 138.04-6.85 138.04-5.2 138.04-3.55 138.44-3.55 138.84-3.55 140.54-4.45L140.54-4.45 141.14-4.75 142.04-3Q141.59-2.6 140.84-2 140.09-1.4 138.09-0.4 136.09 0.6 134.41 0.6 132.74 0.6 131.74-0.48 130.74-1.55 130.74-3.38 130.74-5.2 131.86-10.03 132.99-14.85 132.99-16.13 132.99-17.4 131.94-17.4L131.94-17.4Q130.64-17.4 128.69-16.3L128.69-16.3Q125.94-4.2 125.94-0.6L125.94-0.6Q123.84 0.2 118.79 0.2L118.79 0.2Q118.74-0.65 118.74-1.3L118.74-1.3Q118.74-3.45 121.71-16 124.69-28.55 124.69-33ZM154.43-21.55L159.28-21.55Q159.18-20.3 158.43-18.65L158.43-18.65Q156.53-18.85 154.83-18.85L154.83-18.85 153.93-18.85Q151.63-7.7 151.63-4.95L151.63-4.95Q151.63-3.5 152.26-3.5 152.88-3.5 155.58-4.75L155.58-4.75 156.48-3.1Q152.03 0.6 148.23 0.6L148.23 0.6Q146.48 0.6 145.36-0.5 144.23-1.6 144.23-3.43 144.23-5.25 144.66-7.55 145.08-9.85 145.83-13.18 146.58-16.5 146.93-18.55L146.93-18.55Q145.08-18.4 144.18-18.25L144.18-18.25Q144.08-18.85 144.08-19.88 144.08-20.9 144.23-21.55L144.23-21.55 147.38-21.55Q147.78-24.25 147.78-26.65L147.78-26.65 147.73-28.2 147.73-28.35Q151.63-29.7 155.08-29.7L155.08-29.7Q155.28-28.7 155.28-27.2 155.28-25.7 154.43-21.55L154.43-21.55ZM179.18-21.55L184.03-21.55Q183.93-20.3 183.18-18.65L183.18-18.65Q181.28-18.85 179.58-18.85L179.58-18.85 178.68-18.85Q176.38-7.7 176.38-4.95L176.38-4.95Q176.38-3.5 177-3.5 177.63-3.5 180.33-4.75L180.33-4.75 181.23-3.1Q176.78 0.6 172.98 0.6L172.98 0.6Q171.23 0.6 170.1-0.5 168.98-1.6 168.98-3.43 168.98-5.25 169.4-7.55 169.83-9.85 170.58-13.18 171.33-16.5 171.68-18.55L171.68-18.55Q169.83-18.4 168.93-18.25L168.93-18.25Q168.83-18.85 168.83-19.88 168.83-20.9 168.98-21.55L168.98-21.55 172.13-21.55Q172.53-24.25 172.53-26.65L172.53-26.65 172.48-28.2 172.48-28.35Q176.38-29.7 179.83-29.7L179.83-29.7Q180.03-28.7 180.03-27.2 180.03-25.7 179.18-21.55L179.18-21.55ZM190.28 0.6L190.28 0.6Q186.83 0.6 184.88-1.83 182.93-4.25 182.93-8.6L182.93-8.6Q182.93-14.15 185.9-18.15 188.88-22.15 194.13-22.15L194.13-22.15 195.93-22.05Q196.78-22.5 197.83-22.5L197.83-22.5Q201.78-22.5 201.78-15.05L201.78-15.05Q203.83-15.15 205.93-15.6L205.93-15.6 206.73-15.8 207.03-13.85Q205.38-13.15 202.58-12.6L202.58-12.6 201.58-12.4Q200.63-7.15 197.73-3.28 194.83 0.6 190.28 0.6ZM192.98-3.7L192.98-3.7Q195.08-3.7 196.75-6.4 198.43-9.1 199.08-12.1L199.08-12.1Q193.73-12.1 193.73-16.1L193.73-16.1Q193.73-17.7 194.38-19.1L194.38-19.1 194.63-19.6Q194.43-19.7 194.13-19.7 193.83-19.7 193.68-19.6L193.68-19.6Q192.43-18.8 191.33-15.85 190.23-12.9 190.23-9.1L190.23-9.1Q190.23-3.7 192.98-3.7ZM230.2 9.1Q228.02 10.45 226.35 10.83 224.67 11.2 222.72 11.2 220.77 11.2 219.4 10.05 218.02 8.9 218.02 7 218.02 5.1 219.3 3.55 220.57 2 222.37 1.1L222.37 1.1Q226.02-0.8 229.02-1.4L229.02-1.4 230.32-1.65Q230.37-1.85 230.92-3.65 231.47-5.45 231.72-6.45L231.72-6.45Q225.37-2.65 221.27-2.65L221.27-2.65Q218.82-2.65 217.22-4.23 215.62-5.8 215.62-8.72 215.62-11.65 217.52-19.28 219.42-26.9 219.42-29.45L219.42-29.45Q219.42-31.1 217.92-33.2L217.92-33.2 217.42-33.9 217.57-34.65Q220.57-35.5 226.82-35.5L226.82-35.5Q227.52-34 227.52-31.45 227.52-28.9 225.62-20.68 223.72-12.45 223.72-11.15L223.72-11.15Q223.72-8.5 225.52-8.5L225.52-8.5Q228.92-8.5 232.77-10.45L232.77-10.45Q235.82-23 236.92-34.15L236.92-34.15Q239.47-35.45 243.92-35.45L243.92-35.45 244.87-35.45Q244.87-32.8 243.97-28.1L243.97-28.1Q242.82-22.15 240.42-10.1L240.42-10.1Q239.37-4.7 237.67-0.68 235.97 3.35 234.17 5.55 232.37 7.75 230.2 9.1ZM222.72 7.85L222.72 7.85Q224.47 7.85 226.37 5.93 228.27 4 229.47 1.35L229.47 1.35Q227.12 1.6 224.2 3.18 221.27 4.75 221.27 6.4L221.27 6.4Q221.27 7 221.7 7.43 222.12 7.85 222.72 7.85ZM252.77 0.6L252.77 0.6Q249.32 0.6 247.37-1.83 245.42-4.25 245.42-8.6L245.42-8.6Q245.42-14.15 248.39-18.15 251.37-22.15 256.62-22.15L256.62-22.15 258.42-22.05Q259.27-22.5 260.32-22.5L260.32-22.5Q264.27-22.5 264.27-15.05L264.27-15.05Q266.32-15.15 268.42-15.6L268.42-15.6 269.22-15.8 269.52-13.85Q267.87-13.15 265.07-12.6L265.07-12.6 264.07-12.4Q263.12-7.15 260.22-3.28 257.32 0.6 252.77 0.6ZM255.47-3.7L255.47-3.7Q257.57-3.7 259.24-6.4 260.92-9.1 261.57-12.1L261.57-12.1Q256.22-12.1 256.22-16.1L256.22-16.1Q256.22-17.7 256.87-19.1L256.87-19.1 257.12-19.6Q256.92-19.7 256.62-19.7 256.32-19.7 256.17-19.6L256.17-19.6Q254.92-18.8 253.82-15.85 252.72-12.9 252.72-9.1L252.72-9.1Q252.72-3.7 255.47-3.7ZM266.12-3.78Q266.12-5.9 267.42-11.08 268.72-16.25 268.72-17.43 268.72-18.6 266.92-20.55L266.92-20.55 266.97-21.2Q270.37-21.9 275.92-21.9L275.92-21.9Q276.17-21.25 276.17-19.55 276.17-17.85 274.77-12.3 273.37-6.75 273.37-5.4 273.37-4.05 274.37-4.05L274.37-4.05Q275.82-4.05 277.72-5.1L277.72-5.1Q277.92-6.3 278.72-9.7L278.72-9.7Q280.52-17.7 280.52-21.15L280.52-21.15Q282.27-21.85 286.82-21.85L286.82-21.85 287.77-21.85Q287.77-19.5 286.37-12.68 284.97-5.85 284.97-4.67 284.97-3.5 285.47-3.5L285.47-3.5Q285.77-3.5 288.32-4.7L288.32-4.7 289.27-3.1Q284.82 0.6 281.47 0.6L281.47 0.6Q279.87 0.6 278.74-0.3 277.62-1.2 277.47-2.65L277.47-2.65Q273.42 0.65 270.12 0.65L270.12 0.65Q268.37 0.65 267.24-0.5 266.12-1.65 266.12-3.78Z" opacity="1" transform="matrix(1,0,0,1,0,0)" fill="#fafafa" class="undefined-text-0" data-fill-palette-color="quaternary" id="text-0"></path></svg></g></svg></g></svg></g></svg></g><g transform="matrix(1,0,0,1,98.53609204548546,0)"><svg viewBox="0 0 16.08625713618619 48.91029414442671" height="48.91029414442671" width="16.08625713618619"><g><svg xmlns="http://www.w3.org/2000/svg" xmlns:xlink="http://www.w3.org/1999/xlink" version="1.1" x="0" y="0" viewBox="33.38793182373047 0.2500000298023224 32.806427001953125 99.74800109863281" enable-background="new 0 0 100 100" xml:space="preserve" height="48.91029414442671" width="16.08625713618619" class="icon-icon-0" data-fill-palette-color="quaternary" id="icon-0"><g fill="#fafafa" data-fill-palette-color="quaternary"><path d="M50.396 99.998c-2.909 0-6.503-10.201-6.562-16.608-0.035-3.853 0.405-9.604 0.832-15.165 0.406-5.308 0.789-10.32 0.697-12.918-0.198-5.478-2.172-9.224-4.077-12.165-0.362-0.56-0.838-1.186-1.391-1.911-2.736-3.6-6.874-9.039-6.481-18.489C33.936 10.159 40.274 1.768 50.37 0.294c0.192-0.028 0.409-0.044 0.645-0.044 2.36 0 6.154 1.502 9.313 4.857 2.984 3.172 6.413 9.101 5.793 19.34-0.369 6.113-3.404 11.049-6.082 15.403-1.381 2.247-2.686 4.368-3.324 6.25-2.082 6.152-0.59 20.75 0.3 29.473 0.317 3.091 0.565 5.533 0.588 6.857 0.2 12.135-4.226 15.627-5.892 16.941-0.118 0.092-0.219 0.17-0.296 0.238C51.135 99.861 50.771 99.998 50.396 99.998L50.396 99.998zM51.015 2.738c-0.104 0-0.199 0.006-0.285 0.018-8.818 1.287-14.362 8.796-14.832 20.089-0.355 8.555 3.304 13.366 5.976 16.88 0.558 0.733 1.084 1.425 1.498 2.064 1.967 3.038 4.254 7.31 4.475 13.428 0.098 2.738-0.291 7.818-0.702 13.197-0.422 5.51-0.859 11.207-0.824 14.952 0.055 5.829 2.81 12.173 4.092 13.86 1.545-1.248 4.873-4.432 4.703-14.754-0.021-1.218-0.266-3.613-0.574-6.646-0.971-9.5-2.438-23.857-0.182-30.522 0.728-2.148 2.104-4.385 3.561-6.755 2.525-4.105 5.387-8.759 5.719-14.25 0.566-9.354-2.473-14.671-5.121-17.485C55.703 3.823 52.488 2.738 51.015 2.738L51.015 2.738z" fill="#fafafa" data-fill-palette-color="quaternary"></path></g><g fill="#fafafa" data-fill-palette-color="quaternary"><path d="M49.216 39.476c-5.502 0-8.889-5.368-9.041-5.613l0.846-0.523c0.037 0.059 3.708 5.86 9.282 5.062 5.611-0.803 7.443-5.765 7.461-5.816l0.937 0.334c-0.081 0.228-2.058 5.58-8.257 6.466C50.024 39.447 49.614 39.476 49.216 39.476L49.216 39.476z" fill="#fafafa" data-fill-palette-color="quaternary"></path></g></svg></g></svg></g><g></g></svg></g></svg></g></svg></g></svg></g><defs></defs></svg><rect width="342.85155851775386" height="342.85155851775386" fill="none" stroke="none" visibility="hidden"></rect></g></svg></g></svg>